{"title":"I Am Number Four Ts XviD DAYN-D3MT","uid":6312794,"size":876769926,"categoryP":"video","categoryS":"movies","magnet":"?xt=urn:btih:95e78a301b9394f652dc9ec6b01a4819a579607e&amp;dn=I+Am+Number+Four+Ts+XviD+DAYN-D3MT&amp;tr=udp%3A%2F%2Ftracker.openbittorrent.com%3A80&amp;tr=udp%3A%2F%2Fopen.demonii.com%3A1337&amp;tr=udp%3A%2F%2Ftracker.coppersurfer.tk%3A6969&amp;tr=udp%3A%2F%2Fexodus.desync.com%3A6969","seeders":0,"leechers":0,"uploader":"arihantkatariya","files":2,"time":1302598771,"description":"[quote]Format                           : AVI\nFormat/Info                      : Audio Video Interleave\nFile size                        : 810 MiB\nDuration                         : 1h 41mn\nOverall bit rate                 : 1 110 Kbps\nWriting application              : Lavf52.39.1\n\nVideo\nID                               : 0\nFormat                           : MPEG-4 Visual\nFormat settings, BVOP            : 1\nFormat settings, QPel            : No\nFormat settings, GMC             : No warppoints\nFormat settings, Matrix          : Default (H.263)\nMuxing mode                      : Packed bitstream\nCodec ID                         : DX50\nCodec ID/Hint                    : DivX 5\nDuration                         : 1h 41mn\nBit rate                         : 1 034 Kbps\nWidth                            : 624 pixels\nHeight                           : 272 pixels\nDisplay aspect ratio             : 2.25:1\nFrame rate                       : 25.000 fps\nColor space                      : YUV\nChroma subsampling               : 4:2:0\nBit depth                        : 8 bits\nScan type                        : Progressive\nCompression mode                 : Lossy\nBits/(Pixel*Frame)               : 0.244\nStream size                      : 754 MiB (93%)\nWriting library                  : DivX 6.8.5 (UTC 2009-08-20)\n\nAudio\nID                               : 1\nFormat                           : MPEG Audio\nFormat version                   : Version 1\nFormat profile                   : Layer 2\nCodec ID                         : 50\nDuration                         : 1h 41mn\nBit rate mode                    : Constant\nBit rate                         : 64.0 Kbps\nChannel(s)                       : 2 channels\nSampling rate                    : 44.1 KHz\nCompression mode                 : Lossy\nStream size                      : 46.7 MiB (6%)\nAlignment                        : Aligned on interleaves\nInterleave, duration             : 26 ms (0.65 video frame)\n\nGreetz To ImagIne For the Source[/quote]","torrent":{"xt":"urn:btih:95e78a301b9394f652dc9ec6b01a4819a579607e","amp;dn":"I+Am+Number+Four+Ts+XviD+DAYN-D3MT","amp;tr":["udp%3A%2F%2Ftracker.openbittorrent.com%3A80","udp%3A%2F%2Fopen.demonii.com%3A1337","udp%3A%2F%2Ftracker.coppersurfer.tk%3A6969","udp%3A%2F%2Fexodus.desync.com%3A6969"],"infoHash":"95e78a301b9394f652dc9ec6b01a4819a579607e","infoHashBuffer":{"type":"Buffer","data":[149,231,138,48,27,147,148,246,82,220,158,198,176,26,72,25,165,121,96,126]},"announce":[],"urlList":[]}}